# xmcd
#
# Track frame offsets:
#	150
#	18960
#	28142
#	48235
#	67440
#	94787
#	114257
#	129712
#	153547
#
# Disc length: 2470 seconds
#
# Revision: 0
# Processed by: cddbd v1.5.2PL0 Copyright (c) Steve Scherf et al.
# Submitted via: EZCDAudioConverter 2.1.7.1
#
DISCID=7809a409
DTITLE=Unknown Mortal Orchestra - Multi-Love
DYEAR=1900
DGENRE=
TTITLE0=Multi-Love
TTITLE1=Like Acid Rain
TTITLE2=Ur Life One Night
TTITLE3=Can't Keep Checking My Phone
TTITLE4=Extreme Wealth And Casual Cruelty
TTITLE5=The World Is Crowded
TTITLE6=Stage Or Screen
TTITLE7=Necessary Evil
TTITLE8=Puzzles
EXTD=
EXTT0=
EXTT1=
EXTT2=
EXTT3=
EXTT4=
EXTT5=
EXTT6=
EXTT7=
EXTT8=
PLAYORDER=
